<?xml version="1.0" encoding="utf-8"?>
<!-- Generator: Adobe Illustrator 21.0.0, SVG Export Plug-In . SVG Version: 6.00 Build 0)  -->
<svg version="1.1" id="Layer_1" xmlns="http://www.w3.org/2000/svg" xmlns:xlink="http://www.w3.org/1999/xlink" x="0px" y="0px"
	 width="353.3px" height="61.8px" viewBox="0 0 353.3 61.8" style="enable-background:new 0 0 353.3 61.8;" xml:space="preserve">
<style type="text/css">
	.st0{fill:#FFFFFF;}
	.st1{fill:#58595B;}
	.st2{fill:#009AAC;}
</style>
<rect x="18.9" class="st0" width="8" height="0.7"/>
<rect x="35.5" class="st0" width="8" height="0.7"/>
<polygon class="st1" points="132.5,9.4 132.5,16.1 139,16.1 139,9.4 142.9,9.4 142.9,26.9 139,26.9 139,19.6 132.5,19.6 132.5,26.9 
	128.5,26.9 128.5,9.4 "/>
<path class="st1" d="M162.4,17.9c0,5.7-3.5,9.2-8.6,9.2c-5.2,0-8.2-3.9-8.2-8.9c0-5.2,3.3-9.1,8.5-9.1
	C159.4,9.1,162.4,13.1,162.4,17.9 M149.8,18.2c0,3.4,1.6,5.8,4.2,5.8c2.7,0,4.2-2.5,4.2-5.9c0-3.1-1.5-5.8-4.2-5.8
	C151.3,12.2,149.8,14.8,149.8,18.2"/>
<path class="st1" d="M165.1,22.8c1.1,0.5,2.7,1.1,4.4,1.1c1.8,0,2.8-0.8,2.8-1.9c0-1.1-0.8-1.7-2.9-2.5c-2.9-1-4.8-2.6-4.8-5.2
	c0-3,2.5-5.3,6.6-5.3c2,0,3.4,0.4,4.5,0.9l-0.9,3.2c-0.7-0.3-1.9-0.8-3.7-0.8c-1.7,0-2.5,0.8-2.5,1.7c0,1.1,1,1.6,3.2,2.5
	c3.1,1.1,4.5,2.7,4.5,5.2c0,2.9-2.3,5.4-7,5.4c-2,0-4-0.5-4.9-1.1L165.1,22.8z"/>
<path class="st1" d="M179,9.6c1.2-0.2,2.9-0.4,5.3-0.4c2.4,0,4.2,0.5,5.3,1.4c1.1,0.9,1.9,2.3,1.9,4c0,1.7-0.6,3.2-1.6,4.1
	c-1.3,1.3-3.3,1.8-5.7,1.8c-0.5,0-1,0-1.3-0.1v6.2H179V9.6z M182.9,17.6c0.3,0.1,0.8,0.1,1.3,0.1c2.1,0,3.4-1.1,3.4-2.9
	c0-1.6-1.1-2.6-3.1-2.6c-0.8,0-1.3,0.1-1.6,0.2V17.6z"/>
<rect x="194" y="9.4" class="st1" width="4" height="17.5"/>
<polygon class="st1" points="204.8,12.7 200.1,12.7 200.1,9.4 213.5,9.4 213.5,12.7 208.8,12.7 208.8,26.9 204.8,26.9 "/>
<path class="st1" d="M217.9,22.4l-1.2,4.5h-4.1l5.3-17.5h5.2l5.4,17.5h-4.2l-1.3-4.5H217.9z M222.3,19.4l-1.1-3.7
	c-0.3-1-0.6-2.3-0.9-3.4h-0.1c-0.3,1-0.5,2.4-0.8,3.4l-1,3.7H222.3z"/>
<polygon class="st1" points="230.8,9.4 234.8,9.4 234.8,23.5 241.7,23.5 241.7,26.9 230.8,26.9 "/>
<path class="st1" d="M249.3,9.6c1.2-0.2,2.9-0.4,5.3-0.4c2.4,0,4.2,0.5,5.3,1.4c1.1,0.9,1.9,2.3,1.9,4c0,1.7-0.6,3.2-1.6,4.1
	c-1.3,1.3-3.3,1.8-5.7,1.8c-0.5,0-1,0-1.3-0.1v6.2h-3.9V9.6z M253.2,17.6c0.3,0.1,0.8,0.1,1.3,0.1c2.1,0,3.4-1.1,3.4-2.9
	c0-1.6-1.1-2.6-3.1-2.6c-0.8,0-1.3,0.1-1.6,0.2V17.6z"/>
<path class="st1" d="M264.3,9.6c1.3-0.2,3.2-0.4,5.3-0.4c2.6,0,4.4,0.4,5.7,1.4c1,0.8,1.6,2,1.6,3.7c0,2.2-1.6,3.8-3.1,4.3v0.1
	c1.2,0.5,1.9,1.7,2.3,3.3c0.5,2,1.1,4.2,1.4,4.9h-4c-0.3-0.5-0.7-1.9-1.2-4.1c-0.5-2.2-1.2-2.8-2.8-2.8h-1.2v6.9h-3.9V9.6z
	 M268.3,17.1h1.6c2,0,3.1-1,3.1-2.5c0-1.6-1.1-2.4-2.9-2.4c-1,0-1.5,0.1-1.8,0.1V17.1z"/>
<rect x="279.7" y="9.4" class="st1" width="4" height="17.5"/>
<path class="st1" d="M291.2,26.9l-5.6-17.5h4.3l2.1,7.4c0.6,2.1,1.1,4.1,1.6,6.2h0.1c0.4-2.1,1-4.2,1.6-6.2l2.2-7.5h4.2l-5.9,17.5
	H291.2z"/>
<path class="st1" d="M306.3,22.4l-1.2,4.5H301l5.3-17.5h5.2l5.4,17.5h-4.2l-1.3-4.5H306.3z M310.7,19.4l-1.1-3.7
	c-0.3-1-0.6-2.3-0.9-3.4h-0.1c-0.3,1-0.5,2.4-0.8,3.4l-1,3.7H310.7z"/>
<path class="st1" d="M319.2,9.6c1.5-0.2,3.3-0.4,5.3-0.4c3.3,0,5.5,0.6,7.2,1.9c1.8,1.3,3,3.5,3,6.6c0,3.3-1.2,5.6-2.9,7.1
	c-1.8,1.5-4.6,2.3-8.1,2.3c-2,0-3.5-0.1-4.5-0.3V9.6z M323.2,23.9c0.3,0.1,0.9,0.1,1.4,0.1c3.6,0,5.9-1.9,5.9-6.1
	c0-3.6-2.1-5.5-5.5-5.5c-0.9,0-1.5,0.1-1.8,0.2V23.9z"/>
<path class="st1" d="M353.3,17.9c0,5.7-3.5,9.2-8.6,9.2c-5.2,0-8.2-3.9-8.2-8.9c0-5.2,3.3-9.1,8.5-9.1
	C350.3,9.1,353.3,13.1,353.3,17.9 M340.6,18.2c0,3.4,1.6,5.8,4.2,5.8c2.7,0,4.2-2.5,4.2-5.9c0-3.1-1.5-5.8-4.2-5.8
	C342.2,12.2,340.6,14.8,340.6,18.2"/>
<path class="st1" d="M128.8,35.4c1.4-0.2,3-0.4,4.8-0.4c3.2,0,5.5,0.8,7.1,2.2c1.6,1.4,2.5,3.4,2.5,6.3c0,2.8-0.9,5.2-2.5,6.8
	c-1.6,1.6-4.3,2.5-7.7,2.5c-1.6,0-3-0.1-4.1-0.2V35.4z M131,50.9c0.6,0.1,1.4,0.1,2.3,0.1c4.8,0,7.4-2.7,7.4-7.4
	c0-4.1-2.3-6.7-7.1-6.7c-1.2,0-2,0.1-2.6,0.2V50.9z"/>
<polygon class="st1" points="155.1,44.5 148.3,44.5 148.3,50.8 155.9,50.8 155.9,52.7 146.1,52.7 146.1,35.2 155.5,35.2 155.5,37.1 
	148.3,37.1 148.3,42.6 155.1,42.6 "/>
<path class="st1" d="M176.5,52.1c-0.8,0.4-2.5,0.8-4.6,0.8c-4.9,0-8.6-3.1-8.6-8.8c0-5.5,3.7-9.2,9.1-9.2c2.2,0,3.5,0.5,4.1,0.8
	l-0.5,1.8c-0.9-0.4-2.1-0.7-3.5-0.7c-4.1,0-6.8,2.6-6.8,7.2c0,4.3,2.5,7,6.7,7c1.4,0,2.8-0.3,3.7-0.7L176.5,52.1z"/>
<path class="st1" d="M193.7,43.8c0,6-3.7,9.2-8.1,9.2c-4.6,0-7.8-3.6-7.8-8.9c0-5.5,3.4-9.2,8.1-9.2
	C190.6,34.9,193.7,38.6,193.7,43.8 M180.2,44c0,3.7,2,7.1,5.6,7.1c3.6,0,5.6-3.3,5.6-7.3c0-3.5-1.8-7.1-5.6-7.1
	C182,36.8,180.2,40.2,180.2,44"/>
<path class="st1" d="M211.4,45c-0.1-2.4-0.3-5.4-0.3-7.5H211c-0.6,2-1.3,4.2-2.2,6.6l-3.1,8.5H204l-2.8-8.3c-0.8-2.5-1.5-4.7-2-6.8
	h-0.1c-0.1,2.2-0.2,5.1-0.3,7.7l-0.5,7.5h-2.2l1.2-17.5h2.9l3,8.4c0.7,2.1,1.3,4.1,1.8,5.9h0.1c0.4-1.8,1.1-3.7,1.8-5.9l3.1-8.4h2.9
	l1.1,17.5h-2.2L211.4,45z"/>
<path class="st1" d="M219.8,35.2v10.3c0,3.9,1.7,5.6,4.1,5.6c2.6,0,4.3-1.7,4.3-5.6V35.2h2.3v10.2c0,5.4-2.8,7.6-6.6,7.6
	c-3.6,0-6.3-2-6.3-7.5V35.2H219.8z"/>
<path class="st1" d="M234.3,52.7V35.2h2.5l5.6,8.8c1.3,2,2.3,3.9,3.1,5.7l0.1,0c-0.2-2.3-0.3-4.5-0.3-7.2v-7.3h2.1v17.5h-2.3
	l-5.5-8.9c-1.2-1.9-2.4-3.9-3.3-5.8l-0.1,0c0.1,2.2,0.2,4.3,0.2,7.2v7.5H234.3z"/>
<rect x="251.3" y="35.2" class="st1" width="2.3" height="17.5"/>
<path class="st1" d="M257.5,35.4c1.4-0.2,3-0.4,4.8-0.4c3.2,0,5.5,0.8,7.1,2.2c1.6,1.4,2.5,3.4,2.5,6.3c0,2.8-0.9,5.2-2.5,6.8
	c-1.6,1.6-4.3,2.5-7.7,2.5c-1.6,0-3-0.1-4.1-0.2V35.4z M259.8,50.9c0.6,0.1,1.4,0.1,2.3,0.1c4.8,0,7.4-2.7,7.4-7.4
	c0-4.1-2.3-6.7-7.1-6.7c-1.2,0-2,0.1-2.6,0.2V50.9z"/>
<path class="st1" d="M277.3,47.2l-1.8,5.5h-2.3l5.9-17.5h2.7l6,17.5h-2.4l-1.9-5.5H277.3z M283,45.4l-1.7-5
	c-0.4-1.1-0.6-2.2-0.9-3.2h-0.1c-0.3,1-0.5,2.1-0.9,3.2l-1.7,5.1H283z"/>
<path class="st1" d="M290.3,35.4c1.4-0.2,3-0.4,4.8-0.4c3.2,0,5.5,0.8,7.1,2.2c1.6,1.4,2.5,3.4,2.5,6.3c0,2.8-0.9,5.2-2.5,6.8
	c-1.6,1.6-4.3,2.5-7.7,2.5c-1.6,0-3-0.1-4.1-0.2V35.4z M292.6,50.9c0.6,0.1,1.4,0.1,2.3,0.1c4.8,0,7.4-2.7,7.4-7.4
	c0-4.1-2.3-6.7-7.1-6.7c-1.2,0-2,0.1-2.6,0.2V50.9z"/>
<path class="st2" d="M57,23.6h-2.3v5.7h1.9c1.5,0,2.6-0.3,3.2-0.8c0.6-0.5,0.9-1.2,0.9-2c0-0.8-0.3-1.5-0.8-2.1
	C59.5,23.9,58.5,23.6,57,23.6 M43.5,0.7v9.2h-8V0.7h-8.6v9.2h-8V0.7H0v61.1h108.5V0.7H43.5z M43.5,44.1h-8V33.7h-8.7v10.4h-7.9V18.4
	h7.9v9h8.7v-9h8V44.1z M66.2,32.4c-1.6,1.5-3.9,2.2-7.1,2.2h-4.3v9.5h-8V18.4h13.2c2.9,0,5,0.7,6.5,2c1.4,1.4,2.2,3.3,2.2,5.8
	C68.6,28.9,67.8,30.9,66.2,32.4 M84.4,42.3c2.2,0,4.3-0.4,5.7-1.1l0.7,2.8c-1.2,0.6-3.9,1.3-7.1,1.3c-7.6,0-13.3-4.8-13.3-13.7
	c0-8.5,5.7-14.2,14.1-14.2c3.3,0,5.5,0.7,6.4,1.2L90,21.4c-1.3-0.6-3.2-1.1-5.4-1.1c-6.3,0-10.5,4-10.5,11.1
	C74,38,77.8,42.3,84.4,42.3"/>
</svg>
